<svg xmlns="http://www.w3.org/2000/svg" viewBox="0 0 377.1987 54"><rect x="52" y="8.0073" width="20" height="8" fill="#888b8d"/><rect x="13" y="8.0073" width="8" height="26.0005" fill="#888b8d"/><rect x="26" y="8.0073" width="8" height="38.0005" fill="#888b8d"/><rect y="8.0073" width="8" height="38.0005" fill="#888b8d"/><rect x="52" y="21.0073" width="8" height="24.9995" fill="#888b8d"/><rect x="39" y="8.0073" width="8" height="8" fill="#888b8d"/><rect x="39" y="21.0073" width="8" height="25.0005" fill="#c2c0bf"/><rect x="88" width="1" height="54" fill="#888b8d"/><path d="M119.86,31.0742c0,5.3955-3.3936,7.34-8.5279,7.34-2.35,0-5.2212-.4063-6.7876-1.335V32.3223a13.4729,13.4729,0,0,0,6.3233,1.6816c3.2778,0,4.2348-1.0146,4.2348-2.4941,0-1.6534-.7251-2.2051-2.93-2.4942-5.5112-.7256-7.6284-2.35-7.6284-6.6142,0-3.9449,2.4072-6.5552,8.1509-6.5552a14.2818,14.2818,0,0,1,6.1494,1.0732v4.4961a15.15,15.15,0,0,0-5.8013-1.1606c-2.4077,0-3.7421.7544-3.7421,2.1465,0,1.5664.8413,2.06,3.104,2.3789C117.22,25.4473,119.86,26.4336,119.86,31.0742Z" fill="#888b8d"/><path d="M129.2822,34.41a7.8611,7.8611,0,0,0,3.22-.667v3.9453a8.1443,8.1443,0,0,1-3.6841.7256c-5.3662,0-7.3388-2.7266-7.3388-7.6582s1.9726-7.6582,7.3388-7.6582a8.1435,8.1435,0,0,1,3.6841.7251v3.9453a7.8594,7.8594,0,0,0-3.22-.6675c-1.914,0-3.22.8994-3.22,3.6553S127.3682,34.41,129.2822,34.41Z" fill="#888b8d"/><path d="M139.46,16.252v7.7739a7.8552,7.8552,0,0,1,3.771-.9282c3.9449,0,5.0762,2.0883,5.0762,4.873V38.0078h-4.6411V28.667c0-1.0732-.377-1.7983-1.6245-1.7983a5.0448,5.0448,0,0,0-2.5816.7543V38.0078h-4.6411V16.252Z" fill="#888b8d"/><path d="M150.189,30.7559c0-4.5254,1.45-7.6582,6.8168-7.6582s6.8165,3.1328,6.8165,7.6582-1.45,7.6582-6.8165,7.6582S150.189,35.2813,150.189,30.7559Zm4.6411,0c0,2.9.58,3.9453,2.1757,3.9453s2.1753-1.0449,2.1753-3.9453-.58-3.9454-2.1753-3.9454S154.83,27.855,154.83,30.7559Z" fill="#888b8d"/><path d="M165.2685,30.7559c0-4.5254,1.45-7.6582,6.8169-7.6582s6.8164,3.1328,6.8164,7.6582-1.45,7.6582-6.8164,7.6582S165.2685,35.2813,165.2685,30.7559Zm4.6412,0c0,2.9.58,3.9453,2.1757,3.9453s2.1753-1.0449,2.1753-3.9453-.58-3.9454-2.1753-3.9454S169.91,27.855,169.91,30.7559Z" fill="#888b8d"/><path d="M186.875,38.123a7.9636,7.9636,0,0,1-1.3345.1163c-2.4946,0-4.4673-1.2764-4.4673-4.09V16.252h4.6123v17.26c0,.5508.2613.8692,1.19.8692Z" fill="#888b8d"/><path d="M194.1225,30.7559c0-4.5254,1.45-7.6582,6.8165-7.6582s6.8164,3.1328,6.8164,7.6582-1.4493,7.6582-6.8164,7.6582S194.1225,35.2813,194.1225,30.7559Zm4.6407,0c0,2.9.58,3.9453,2.1758,3.9453s2.1757-1.0449,2.1757-3.9453-.58-3.9454-2.1757-3.9454S198.7632,27.855,198.7632,30.7559Z" fill="#888b8d"/><path d="M219.935,20.2261a4.8276,4.8276,0,0,0-2.2626-.522,1.6766,1.6766,0,0,0-1.9151,1.7983v2.0015H219.5v3.8579h-3.7422v10.646h-4.6406V27.3618h-2.35V24.2871l2.35-.6382V20.9512c0-3.4229,1.8848-5.105,6.0918-5.105a8.1141,8.1141,0,0,1,2.7265.4932Z" fill="#888b8d"/><path d="M239.9448,28.8418H231.562v4.9307h9.2246v4.2353H226.9214V16.252h13.8652v4.2353H231.562v4.2061h8.3828Z" fill="#888b8d"/><path d="M245.9165,23.5039l.58,1.0444a9.94,9.94,0,0,1,5.0478-1.4506c3.9444,0,5.0762,2.0883,5.0762,4.873V38.0078H251.979V28.667c0-1.0732-.377-1.7983-1.624-1.7983a5.0485,5.0485,0,0,0-2.5821.7543V38.0078h-4.6406V23.5039Z" fill="#888b8d"/><path d="M265.0288,23.0977a10.2764,10.2764,0,0,1,3.3926.4062H273.15v3.1035l-1.74.4644a9.2338,9.2338,0,0,1,.1445,1.5952c0,3.6553-2.0293,5.5693-6.5254,5.5693a12.024,12.024,0,0,1-1.4805-.0586.8947.8947,0,0,0-.2031.5518c0,.29.1738.4639.58.5225l5.6.7246c3.0449.4062,3.916,1.914,3.916,4.2636,0,3.9161-4.4961,5.4248-8.9355,5.4248-3.6543,0-6.8741-1.1318-6.8741-3.9443a3.6527,3.6527,0,0,1,3.0166-3.51,2.5372,2.5372,0,0,1-1.3339-2.35,3.4414,3.4414,0,0,1,1.5371-2.4951c-1.5957-.9287-2.35-2.4658-2.35-4.6992C258.5015,25.0122,260.5327,23.0977,265.0288,23.0977Zm-2.002,15.8964a1.6874,1.6874,0,0,0-1.1025,1.4786c0,1.0449.7832,1.7109,3.0752,1.7109,2.2051,0,3.8574-.7539,3.8574-1.7109,0-.4639-.2324-.7539-.8125-.8409Zm2.002-8.1806a1.8851,1.8851,0,0,0,2.1172-2.1465,2.1179,2.1179,0,1,0-4.2354,0A1.885,1.885,0,0,0,265.0288,30.8135Z" fill="#888b8d"/><path d="M277.2065,16.542a2.7559,2.7559,0,1,1,0,5.5117,2.7559,2.7559,0,0,1,0-5.5117Zm3.4825,21.581a7.9708,7.9708,0,0,1-1.336.1163c-2.4941,0-4.4668-1.2764-4.4668-4.09V23.5039H279.5V33.5117c0,.5508.26.8692,1.19.8692Z" fill="#888b8d"/><path d="M285.5015,23.5039l.58,1.0444a9.9391,9.9391,0,0,1,5.0469-1.4506c3.9453,0,5.0762,2.0883,5.0762,4.873V38.0078H291.564V28.667c0-1.0732-.377-1.7983-1.625-1.7983a5.0485,5.0485,0,0,0-2.5821.7543V38.0078h-4.6406V23.5039Z" fill="#888b8d"/><path d="M302.6694,32.293c-.1172,1.8847.8692,2.4365,3.1328,2.4365a10.9955,10.9955,0,0,0,4.8438-.957v3.6259a14.9067,14.9067,0,0,1-5.4531,1.0157c-4.7871,0-7.1075-2.4375-7.1075-7.6582s2.2911-7.6582,6.7871-7.6582c6.209,0,6.6426,4.6411,6.2657,9.1953Zm0-2.8428h4.1192c.26-1.5952-.0879-2.8716-1.8575-2.8716C303.3647,26.5786,302.6694,27.623,302.6694,29.45Z" fill="#888b8d"/><path d="M317.4292,32.293c-.1152,1.8847.8711,2.4365,3.1328,2.4365a10.9828,10.9828,0,0,0,4.8438-.957v3.6259a14.9,14.9,0,0,1-5.4532,1.0157c-4.7851,0-7.1054-2.4375-7.1054-7.6582s2.291-7.6582,6.7871-7.6582c6.207,0,6.6425,4.6411,6.2656,9.1953Zm0-2.8428h4.1191c.2617-1.5952-.0879-2.8716-1.8554-2.8716C318.1265,26.5786,317.4292,27.623,317.4292,29.45Z" fill="#888b8d"/><path d="M337.3237,27.0425a7.4264,7.4264,0,0,0-1.42-.1157,5.4124,5.4124,0,0,0-3.0762.8413v10.24H328.187V23.5039h2.7852l.58,1.0444a6.6148,6.6148,0,0,1,4.4668-1.4506,3.9011,3.9011,0,0,1,1.3047.2031Z" fill="#888b8d"/><path d="M341.3823,16.542a2.7559,2.7559,0,1,1,0,5.5117,2.7559,2.7559,0,0,1,0-5.5117Zm3.4805,21.581a7.9612,7.9612,0,0,1-1.334.1163c-2.4941,0-4.4668-1.2764-4.4668-4.09V23.5039h4.6113V33.5117c0,.5508.2617.8692,1.19.8692Z" fill="#888b8d"/><path d="M349.6753,23.5039l.58,1.0444a9.9456,9.9456,0,0,1,5.0488-1.4506c3.9433,0,5.0762,2.0883,5.0762,4.873V38.0078h-4.6426V28.667c0-1.0732-.377-1.7983-1.6231-1.7983a5.0418,5.0418,0,0,0-2.582.7543V38.0078h-4.6406V23.5039Z" fill="#888b8d"/><path d="M368.7866,23.0977a10.2946,10.2946,0,0,1,3.3945.4062H376.91v3.1035l-1.7422.4644a9.22,9.22,0,0,1,.1465,1.5952c0,3.6553-2.0313,5.5693-6.5274,5.5693a11.99,11.99,0,0,1-1.4785-.0586.8829.8829,0,0,0-.2031.5518c0,.29.1738.4639.58.5225l5.5977.7246c3.0469.4062,3.916,1.914,3.916,4.2636,0,3.9161-4.4961,5.4248-8.9336,5.4248-3.6543,0-6.875-1.1318-6.875-3.9443a3.6517,3.6517,0,0,1,3.0176-3.51,2.5353,2.5353,0,0,1-1.3359-2.35,3.4383,3.4383,0,0,1,1.539-2.4951c-1.5957-.9287-2.35-2.4658-2.35-4.6992C362.2612,25.0122,364.2905,23.0977,368.7866,23.0977Zm-2.0019,15.8964a1.6863,1.6863,0,0,0-1.1016,1.4786c0,1.0449.7832,1.7109,3.0742,1.7109,2.2051,0,3.8594-.7539,3.8594-1.7109,0-.4639-.2324-.7539-.8125-.8409Zm2.0019-8.1806a1.8843,1.8843,0,0,0,2.1172-2.1465,2.1174,2.1174,0,1,0-4.2344,0A1.8843,1.8843,0,0,0,368.7866,30.8135Z" fill="#888b8d"/></svg>
